<?xml version="1.0" standalone="no"?>
<!DOCTYPE svg PUBLIC "-//W3C//DTD SVG 20010904//EN"
 "http://www.w3.org/TR/2001/REC-SVG-20010904/DTD/svg10.dtd">
<svg version="1.0" xmlns="http://www.w3.org/2000/svg"
 width="450.000000pt" height="450.000000pt" viewBox="0 0 450.000000 450.000000"
 preserveAspectRatio="xMidYMid meet">

<g transform="translate(0.000000,450.000000) scale(0.100000,-0.100000)"
fill="#000000" stroke="none">
<path d="M448 3223 c-104 -4 -108 -5 -108 -26 0 -12 7 -220 15 -462 8 -242 15
-449 15 -461 0 -19 7 -22 74 -27 41 -3 102 -3 136 0 l63 6 -6 204 c-3 111 -2
203 2 203 4 0 63 -97 130 -215 68 -118 126 -217 130 -219 6 -4 120 -7 242 -6
17 0 28 6 31 17 5 19 -9 974 -14 978 -2 2 -63 1 -137 -2 l-134 -6 6 -213 c3
-118 3 -214 -1 -214 -6 0 -129 207 -224 379 -42 75 -24 70 -220 64z"/>
<path d="M1215 2708 c4 -271 9 -495 12 -498 8 -8 669 -41 723 -35 30 3 58 11
62 18 10 15 11 187 1 187 -4 0 -27 -7 -50 -16 -37 -14 -59 -15 -155 -7 l-113
10 125 3 125 3 -110 8 c-60 4 -159 9 -220 11 l-110 3 -3 122 -3 122 73 -5
c238 -13 312 -12 350 3 l38 15 0 83 0 83 -37 -9 c-50 -11 -394 -10 -413 1 -11
7 -16 36 -18 114 l-4 106 251 -3 250 -2 21 -95 c21 -94 29 -128 70 -305 12
-49 39 -173 61 -275 22 -101 42 -187 45 -190 3 -3 71 -7 151 -8 l146 -4 -6 24
c-4 13 12 94 39 198 71 277 106 404 113 412 6 7 162 -602 161 -630 0 -17 42
-32 88 -32 l37 0 -3 78 c-4 81 7 144 32 177 13 18 14 16 5 -24 -9 -41 -8 -47
16 -70 14 -14 25 -20 25 -14 0 7 -5 15 -10 18 -6 4 -7 11 -4 17 4 7 2 8 -4 4
-13 -8 -15 7 -6 42 5 16 14 22 35 22 15 0 31 5 34 11 4 6 25 23 46 39 35 25
37 28 18 33 -16 4 -19 11 -14 29 8 27 50 68 70 68 7 0 18 15 24 33 9 28 90
348 126 497 8 30 16 62 19 70 5 13 -11 15 -119 14 -69 -1 -128 -3 -130 -5 -4
-4 -109 -458 -120 -522 -4 -20 -11 -40 -16 -43 -5 -3 -9 -2 -9 2 0 3 -25 113
-56 243 -31 130 -61 261 -68 291 -9 41 -15 54 -26 50 -8 -2 -78 -5 -154 -5
l-139 0 -17 -65 c-10 -36 -39 -146 -64 -245 -54 -208 -55 -209 -61 -203 -3 3
-12 38 -21 79 -45 214 -94 451 -94 453 0 0 -230 2 -511 4 l-511 3 7 -493z
m1863 -261 c2 -10 -4 -20 -13 -23 -21 -9 -28 0 -20 26 8 24 28 22 33 -3z
m-1408 -77 c12 -8 12 -10 -5 -10 -11 0 -27 5 -35 10 -12 8 -12 10 5 10 11 0
27 -5 35 -10z"/>
<path d="M3560 3176 c-103 -28 -177 -83 -215 -161 -29 -58 -28 -185 2 -240 54
-101 143 -157 338 -210 165 -45 231 -83 235 -135 5 -55 -1 -73 -35 -104 -47
-45 -108 -61 -165 -46 -29 8 -39 14 -30 20 9 5 2 10 -20 15 -47 10 -114 80
-136 143 -20 55 -25 60 -43 38 -10 -11 -17 -11 -48 5 -46 24 -77 26 -45 3 25
-17 29 -34 7 -34 -14 0 -17 -4 -19 -32 -1 -7 -5 -16 -10 -19 -5 -4 -6 -15 -2
-25 7 -17 9 -16 28 9 24 32 23 32 83 6 32 -14 44 -24 37 -31 -15 -15 -63 -13
-72 2 -13 22 -63 -6 -82 -46 -40 -79 -7 -148 68 -142 36 3 38 1 45 -32 8 -36
3 -53 -9 -33 -4 7 -23 -5 -52 -33 -25 -24 -52 -44 -60 -44 -8 0 -28 -7 -44
-15 -15 -8 -37 -15 -47 -15 -10 0 -20 -4 -23 -9 -9 -13 -57 -20 -49 -7 4 6 -3
3 -15 -7 -20 -18 -20 -18 -15 1 2 11 16 25 29 31 16 7 24 19 24 35 0 14 5 28
10 31 21 13 9 34 -26 45 -19 7 -48 24 -64 38 -48 45 -59 52 -74 52 -8 0 -18 5
-21 10 -10 17 -30 -5 -44 -48 -11 -34 -11 -43 4 -73 10 -19 24 -38 31 -44 7
-5 15 -30 19 -55 6 -38 5 -43 -7 -33 -7 7 -19 8 -26 4 -10 -6 -8 -14 8 -33 25
-33 25 -33 -6 -36 -35 -3 -44 -10 -44 -32 0 -47 207 -86 395 -75 115 6 124 9
190 68 30 26 36 37 25 41 -48 16 -94 24 -108 18 -11 -4 -4 10 17 39 18 24 41
56 50 71 9 16 24 28 34 28 11 0 15 -4 11 -12 -5 -7 -3 -8 7 -3 17 11 212 8
259 -4 42 -11 91 -11 85 -1 -3 5 4 6 15 3 14 -4 20 0 20 11 0 9 8 16 18 17 11
0 7 5 -12 14 l-30 12 40 26 c48 30 97 84 123 135 26 51 50 204 33 210 -9 3
-10 8 -2 17 7 9 7 21 0 41 -9 23 -13 25 -20 14 -8 -13 -10 -13 -10 0 0 9 -18
35 -40 58 -23 23 -36 42 -31 42 5 0 26 -19 45 -42 20 -23 36 -36 36 -30 0 23
-95 110 -145 133 -27 12 -53 24 -57 26 -5 2 -8 -1 -8 -6 0 -6 9 -11 20 -11 11
0 20 -4 20 -10 0 -5 9 -10 20 -10 11 0 20 -4 20 -10 0 -13 -6 -13 -38 4 -16 8
-91 33 -167 56 -144 43 -200 66 -135 55 32 -5 30 -3 -23 26 -47 27 -59 39 -69
70 -6 22 -16 39 -21 39 -5 0 7 14 28 30 39 31 63 36 160 31 90 -5 144 -46 166
-127 l10 -35 107 3 107 3 -2 47 c-4 130 -116 244 -271 277 -69 14 -235 13
-292 -3z m475 -504 c-3 -3 -11 0 -18 7 -9 10 -8 11 6 5 10 -3 15 -9 12 -12z
m110 -142 c3 -5 1 -10 -4 -10 -6 0 -11 5 -11 10 0 6 2 10 4 10 3 0 8 -4 11
-10z m-647 -99 c3 -8 -1 -12 -9 -9 -7 2 -15 10 -17 17 -3 8 1 12 9 9 7 -2 15
-10 17 -17z"/>
<path d="M3738 2793 c6 -2 18 -2 25 0 6 3 1 5 -13 5 -14 0 -19 -2 -12 -5z"/>
<path d="M3225 2520 c-10 -11 -13 -20 -7 -20 7 0 12 4 12 8 0 5 10 14 23 20
15 7 17 11 6 11 -9 1 -24 -8 -34 -19z"/>
<path d="M3120 2470 c-12 -8 -9 -10 13 -10 15 0 27 5 27 10 0 13 -20 13 -40 0z"/>
<path d="M3728 2293 c7 -3 16 -2 19 1 4 3 -2 6 -13 5 -11 0 -14 -3 -6 -6z"/>
</g>
</svg>
